<?xml version="1.0" standalone="no"?>
<!DOCTYPE svg PUBLIC "-//W3C//DTD SVG 20010904//EN"
 "http://www.w3.org/TR/2001/REC-SVG-20010904/DTD/svg10.dtd">
<svg version="1.0" xmlns="http://www.w3.org/2000/svg"
 width="100pt" height="100pt" viewBox="0 0 1500.000000 1500.000000"
 preserveAspectRatio="xMidYMid meet">
<metadata>
Created by potrace 1.10, written by Peter Selinger 2001-2011
</metadata>
<g transform="translate(0.000000,1500.000000) scale(0.100000,-0.100000)"
fill="#000000" stroke="none">
<path d="M6255 13420 c-107 -8 -172 -16 -413 -50 -187 -27 -628 -141 -843
-218 -412 -149 -789 -339 -1140 -577 -328 -223 -545 -402 -804 -666 -285 -290
-471 -528 -701 -896 -97 -156 -290 -541 -384 -768 -104 -253 -148 -377 -205
-585 -20 -74 -43 -155 -50 -180 -39 -136 -82 -409 -107 -665 -16 -179 -22
-766 -9 -915 40 -428 42 -448 87 -695 19 -108 110 -445 153 -570 18 -49 41
-117 52 -150 12 -33 31 -83 44 -111 13 -27 46 -108 75 -180 88 -219 241 -521
347 -684 144 -220 254 -377 333 -476 222 -276 655 -666 990 -891 240 -161 587
-350 795 -433 44 -18 91 -38 105 -44 14 -7 52 -21 85 -30 33 -10 89 -28 125
-41 113 -40 327 -104 420 -125 19 -4 71 -18 115 -30 44 -13 105 -26 135 -31
30 -4 91 -15 135 -23 83 -17 95 -19 405 -63 174 -25 208 -27 565 -27 374 0
383 1 600 32 324 47 390 59 580 112 44 12 94 26 110 30 185 50 266 74 356 104
267 89 629 240 788 330 42 24 81 45 87 47 45 16 422 268 585 391 692 520 1206
1159 1569 1948 89 193 123 279 200 505 60 176 91 276 145 460 25 86 44 186 85
440 70 432 63 1156 -15 1645 -8 52 -20 128 -25 168 -5 40 -12 78 -15 83 -4 5
-10 30 -15 57 -56 316 -206 755 -370 1082 -93 187 -253 444 -423 680 -67 93
-229 289 -334 405 -316 346 -739 690 -1136 922 -147 86 -420 219 -587 286 -74
30 -146 60 -160 65 -155 65 -364 131 -590 186 -80 20 -165 41 -190 47 -47 12
-79 18 -225 42 -49 9 -101 18 -115 21 -14 3 -77 13 -140 22 -134 18 -874 28
-1075 14z m895 -3140 c189 -18 399 -57 600 -113 78 -22 180 -58 235 -82 17 -8
40 -16 53 -20 12 -3 22 -10 22 -14 0 -5 15 -12 33 -16 29 -7 30 -8 8 -12 -13
-3 -28 0 -34 6 -6 6 -20 11 -32 11 -11 0 -40 6 -65 14 -57 18 -138 41 -215 59
-33 8 -82 21 -110 27 -27 7 -72 16 -100 20 -27 5 -57 11 -65 14 -8 3 -53 10
-100 16 -47 7 -132 18 -190 25 -165 22 -426 29 -625 16 -165 -10 -225 -17
-475 -52 -47 -6 -114 -15 -150 -19 -36 -4 -90 -12 -120 -19 -74 -16 -178 -37
-275 -56 -236 -45 -396 -79 -610 -129 -82 -20 -193 -42 -245 -50 -237 -38
-790 -71 -790 -48 0 14 51 27 165 42 136 18 318 44 555 80 74 11 167 24 205
30 85 12 174 27 275 45 41 8 118 21 170 30 52 9 123 23 157 31 34 8 76 14 93
14 18 0 59 6 93 14 69 16 153 33 237 46 30 5 150 25 265 46 116 20 242 40 280
44 111 11 629 11 755 0z m-540 -159 l45 -7 -64 -7 c-35 -4 -91 -7 -125 -7
-116 0 -836 -120 -836 -140 0 -13 42 -20 125 -20 108 0 387 -17 570 -35 83 -8
168 -17 190 -19 70 -6 236 -27 335 -41 52 -8 109 -17 125 -19 36 -5 169 -29
280 -49 44 -9 120 -23 170 -32 49 -9 92 -18 95 -20 19 -12 289 -46 430 -55
350 -22 615 -4 915 60 50 10 115 21 145 25 68 7 228 -10 295 -32 86 -28 145
-57 135 -67 -5 -5 -18 -3 -32 6 -31 20 -81 28 -213 34 -89 5 -130 1 -215 -16
-427 -90 -920 -109 -1230 -48 -30 6 -82 14 -115 19 -33 5 -91 16 -130 24 -283
62 -748 133 -1105 169 -302 30 -479 40 -867 45 -364 6 -448 11 -377 26 16 3
49 12 74 20 118 36 499 113 668 135 40 5 98 14 129 20 31 5 82 10 112 11 31 0
90 6 131 13 82 15 269 19 340 7z m-1595 -371 c299 -16 509 -32 533 -41 44 -17
22 -114 -36 -155 -63 -44 -283 -80 -430 -70 -93 6 -246 14 -657 36 -104 5
-244 10 -310 11 -66 1 -133 5 -150 8 -30 7 -30 7 13 15 70 13 802 10 965 -4
216 -18 418 2 527 54 30 14 37 41 13 50 -10 4 -144 14 -298 21 -154 8 -374 19
-490 25 -186 9 -329 19 -650 46 -75 7 -84 9 -55 15 46 10 794 2 1025 -11z
m1600 -138 c43 -18 98 -49 121 -67 62 -51 128 -145 160 -227 26 -64 29 -86 29
-180 0 -72 -4 -111 -13 -120 -6 -6 -12 -8 -12 -2 0 47 -24 199 -37 238 -64
195 -244 327 -446 326 -120 -1 -186 -30 -279 -123 -144 -144 -212 -333 -188
-522 12 -88 57 -222 87 -257 8 -9 13 -25 11 -35 -3 -16 -15 -18 -123 -17 -200
1 -312 42 -550 198 -82 54 -195 128 -250 164 -55 36 -118 77 -140 92 -22 15
-47 30 -55 33 -8 4 -31 17 -50 28 -19 12 -62 30 -95 41 -119 38 -226 46 -606
48 -438 2 -399 3 -399 -16 0 -41 171 -222 273 -290 84 -56 137 -117 137 -159
0 -12 -14 -15 -72 -15 -40 0 -80 5 -88 10 -11 7 -6 10 21 10 19 0 43 6 53 13
16 12 15 16 -22 48 -22 18 -64 51 -94 72 -107 75 -227 202 -256 270 -16 36
-15 104 1 114 6 4 203 6 437 5 368 -3 438 -6 525 -23 116 -22 217 -67 350
-156 354 -236 496 -327 540 -348 22 -10 48 -22 57 -26 48 -24 113 -41 206 -54
133 -19 138 -17 103 59 -77 167 -88 347 -31 501 38 104 102 205 167 266 45 43
146 109 166 109 8 0 30 7 48 15 25 11 61 14 134 12 86 -2 111 -7 180 -35z
m2935 -45 c91 -43 166 -141 204 -266 23 -78 21 -238 -4 -320 -30 -96 -97 -211
-122 -211 -14 0 -9 21 17 77 39 81 68 234 61 316 -17 188 -76 300 -185 351
-66 30 -189 29 -249 -3 -179 -93 -259 -333 -186 -557 28 -87 55 -134 116 -201
23 -24 38 -47 34 -51 -4 -4 -290 -7 -634 -8 -351 -1 -702 -6 -797 -12 -93 -7
-251 -16 -350 -22 -99 -6 -249 -17 -334 -25 -188 -18 -267 -19 -277 -3 -14 23
206 193 385 297 68 40 80 44 175 51 55 5 151 7 211 4 61 -2 227 -9 370 -14
196 -8 287 -16 370 -33 l110 -22 -55 -6 c-30 -3 -113 -2 -185 3 -71 5 -299 9
-505 11 l-375 2 -93 -50 c-109 -59 -235 -153 -240 -179 -4 -17 2 -18 65 -12
441 39 914 61 1298 61 272 0 620 -11 697 -21 29 -4 48 -2 52 5 4 6 -9 34 -29
63 -19 29 -48 89 -62 133 -24 70 -27 96 -27 200 1 105 4 129 27 187 62 162
168 264 292 282 62 9 180 -5 225 -27z m-5118 -1602 c11 -4 13 -87 12 -445 -1
-298 -5 -444 -12 -452 -13 -16 -137 -17 -153 -1 -14 14 -18 891 -4 897 15 6
141 7 157 1z m1356 -52 c5 -86 2 -88 -137 -88 -76 0 -124 -4 -131 -11 -8 -8
-11 -115 -11 -372 l2 -361 -23 -15 c-24 -16 -122 -17 -146 -2 -9 5 -12 99 -12
369 0 211 -4 368 -10 377 -7 12 -35 15 -131 16 -66 1 -125 6 -129 10 -16 16
-15 115 1 125 8 5 165 8 369 6 l355 -2 3 -52z m1033 37 c4 -8 21 -55 39 -105
17 -49 38 -107 46 -127 8 -21 21 -57 30 -80 9 -24 20 -52 25 -63 32 -74 179
-479 179 -494 0 -27 -28 -33 -110 -25 -65 6 -71 9 -77 33 -12 50 -53 145 -66
153 -15 10 -298 10 -313 0 -13 -8 -36 -59 -54 -119 -20 -65 -36 -75 -121 -71
-60 2 -74 6 -77 20 -3 16 22 88 109 323 17 44 34 91 39 105 5 14 31 84 60 155
28 72 62 166 76 210 15 44 31 86 37 93 15 19 167 12 178 -8z m1056 8 c4 -7 37
-67 73 -133 91 -170 86 -162 107 -149 10 6 34 42 54 80 35 69 65 122 98 179
17 29 19 30 109 33 110 3 117 -4 74 -69 -17 -24 -40 -62 -52 -84 -12 -22 -29
-52 -38 -66 -35 -55 -132 -226 -132 -233 0 -8 66 -120 182 -310 97 -159 96
-163 -38 -150 l-89 9 -35 65 c-116 210 -128 230 -144 230 -6 0 -47 -66 -92
-147 l-80 -148 -89 -8 c-128 -12 -129 -8 -44 133 37 63 73 125 78 138 6 12 26
47 45 76 75 117 74 106 19 197 -148 246 -204 349 -198 359 9 15 182 13 192 -2z
m1328 2 c4 -6 7 -207 8 -446 2 -353 0 -438 -11 -447 -15 -12 -114 -14 -147 -4
-20 7 -20 13 -18 448 2 243 6 445 9 450 7 13 151 11 159 -1z m-3724 -1458 c38
-22 64 -69 49 -87 -19 -23 -48 -18 -77 15 -34 39 -74 40 -102 4 -17 -21 -21
-41 -21 -94 0 -53 4 -73 21 -94 28 -36 67 -34 104 4 51 53 104 29 68 -31 -22
-37 -69 -59 -127 -59 -59 0 -86 13 -116 57 -29 42 -40 149 -21 205 30 91 137
130 222 80z m2153 3 c19 -9 43 -33 55 -56 20 -35 23 -52 19 -122 -2 -67 -7
-88 -27 -114 -32 -42 -69 -56 -136 -51 -90 8 -137 68 -136 178 0 93 25 138 96
172 43 20 76 18 129 -7z m-1791 -12 c8 -16 31 -71 51 -123 20 -52 43 -110 51
-128 28 -63 14 -91 -39 -78 -15 4 -28 17 -34 36 -10 29 -14 30 -67 30 -53 0
-57 -2 -76 -35 -21 -35 -49 -44 -77 -26 -11 7 -10 17 4 60 9 28 20 54 25 57 5
3 9 15 9 28 0 12 4 26 8 32 5 5 19 38 32 74 13 36 30 73 38 83 23 26 59 22 75
-10z m305 15 c8 -8 12 -52 12 -132 0 -67 5 -128 10 -136 6 -10 27 -15 65 -15
64 -1 98 -23 75 -49 -10 -12 -34 -16 -105 -16 -52 0 -100 3 -109 6 -14 5 -16
30 -16 168 0 166 4 186 40 186 9 0 21 -5 28 -12z m356 -4 c3 -9 6 -71 6 -139
0 -85 4 -126 12 -131 6 -4 36 -8 66 -9 62 -2 94 -24 72 -49 -16 -20 -199 -23
-218 -4 -15 15 -17 301 -2 329 13 23 55 25 64 3z m579 -16 c14 -18 39 -59 57
-90 17 -32 35 -58 40 -58 14 0 20 30 20 95 0 69 13 89 52 83 l23 -3 0 -175 c0
-161 -1 -175 -18 -178 -43 -9 -63 8 -116 98 -29 49 -57 90 -62 90 -5 0 -9 -37
-9 -83 0 -87 -8 -107 -45 -107 -41 0 -45 16 -45 180 0 168 3 180 51 180 20 0
35 -10 52 -32z m816 10 c5 -13 15 -51 22 -86 11 -58 23 -81 35 -69 3 3 12 34
19 70 17 81 30 107 54 107 29 0 51 -33 61 -93 8 -53 27 -97 42 -97 7 0 11 21
23 110 7 57 26 83 57 78 31 -4 30 -35 -7 -204 -29 -133 -40 -154 -82 -154 -28
0 -51 46 -62 120 -5 36 -10 45 -26 45 -16 0 -22 -13 -35 -73 -15 -74 -28 -92
-66 -92 -32 0 -43 20 -59 101 -19 103 -43 208 -50 218 -11 19 8 41 36 41 21 0
32 -6 38 -22z"/>
<path d="M6715 7718 c-2 -7 -24 -74 -49 -150 -51 -151 -53 -163 -30 -172 25
-10 174 -7 194 4 17 9 16 15 -17 107 -19 54 -37 111 -40 127 -6 28 -40 96 -49
96 -3 0 -6 -6 -9 -12z"/>
<path d="M7514 6439 c-23 -26 -31 -142 -12 -179 33 -61 108 -44 128 28 29 111
-54 220 -116 151z"/>
<path d="M5779 6353 c-17 -44 11 -75 44 -51 15 12 15 15 0 46 -19 39 -30 40
-44 5z"/>
</g>
</svg>
